PathFileType	4	(X/Y/Z)	RBDS024static.trc
DataRate	CameraRate	NumFrames	NumMarkers	Units	OrigDataRate	OrigDataStartFrame	OrigNumFrames
150.000000	150.000000	4	48	mm	150.000000	131	150
Frame#	Time	L.Ankle			L.Ankle.Medial			L.ASIS			L.GTR			L.Heel.Bottom			L.Heel.Lateral			L.Heel.Top			L.HF			L.Iliac.Crest			L.Knee			L.Knee.Medial			L.MT1			L.MT2			L.MT5			L.PSIS			L.Shank.Bottom.Lateral			L.Shank.Bottom.Medial			L.Shank.Top.Lateral			L.Shank.Top.Medial			L.Thigh.Bottom.Lateral			L.Thigh.Bottom.Medial			L.Thigh.Top.Lateral			L.Thigh.Top.Medial			L.TT			R.Ankle			R.Ankle.Medial			R.ASIS			R.GTR			R.Heel.Bottom			R.Heel.Lateral			R.Heel.Top			R.HF			R.Iliac.Crest			R.Knee			R.Knee.Medial			R.MT1			R.MT2			R.MT5			R.PSIS			R.Shank.Bottom.Lateral			R.Shank.Bottom.Medial			R.Shank.Top.Lateral			R.Shank.Top.Medial			R.Thigh.Bottom.Lateral			R.Thigh.Bottom.Medial			R.Thigh.Top.Lateral			R.Thigh.Top.Medial			R.TT			
		X1	Y1	Z1	X2	Y2	Z2	X3	Y3	Z3	X4	Y4	Z4	X5	Y5	Z5	X6	Y6	Z6	X7	Y7	Z7	X8	Y8	Z8	X9	Y9	Z9	X10	Y10	Z10	X11	Y11	Z11	X12	Y12	Z12	X13	Y13	Z13	X14	Y14	Z14	X15	Y15	Z15	X16	Y16	Z16	X17	Y17	Z17	X18	Y18	Z18	X19	Y19	Z19	X20	Y20	Z20	X21	Y21	Z21	X22	Y22	Z22	X23	Y23	Z23	X24	Y24	Z24	X25	Y25	Z25	X26	Y26	Z26	X27	Y27	Z27	X28	Y28	Z28	X29	Y29	Z29	X30	Y30	Z30	X31	Y31	Z31	X32	Y32	Z32	X33	Y33	Z33	X34	Y34	Z34	X35	Y35	Z35	X36	Y36	Z36	X37	Y37	Z37	X38	Y38	Z38	X39	Y39	Z39	X40	Y40	Z40	X41	Y41	Z41	X42	Y42	Z42	X43	Y43	Z43	X44	Y44	Z44	X45	Y45	Z45	X46	Y46	Z46	X47	Y47	Z47	X48	Y48	Z48	

132	0.8733333333333334	718.3701171875	108.264289855957	1047.044555664063	736.3043823242188	115.3220520019531	1133.712036132813	905.4309692382813	1014.67138671875	1096.972290039063	811.99658203125	922.4385986328125	1031.32177734375	645.6640014648438	41.06076049804688	1090.15869140625	667.9613647460938	61.40324401855469	1047.833862304688	654.6963500976563	85.3021240234375	1091.579467773438	773.2327270507813	468.3008422851563	1036.33251953125	811.1488037109375	1083.6025390625	1044.224487304688	785.4779052734375	530.0070190429688	1040.800048828125	767.46044921875	517.9472045898438	1166.318481445313	869.6099853515625	54.70759963989258	1128.131103515625	875.9993896484375	66.19149017333984	1089.103271484375	834.60693359375	49.10490417480469	1013.270080566406	720.1885986328125	1055.292846679688	1159.941528320313	728.2083129882813	183.0120086669922	1039.199096679688	683.2029418945313	187.8933258056641	1063.708129882813	730.745361328125	261.9524841308594	1020.951965332031	685.0789794921875	271.1217346191406	1047.357666015625	780.3297119140625	654.3572998046875	1022.482727050781	719.5419921875	656.0504760742188	1060.58154296875	778.0130615234375	764.7926025390625	1020.4248046875	723.4022827148438	766.6349487304688	1061.851806640625	823.2308349609375	450.477294921875	1090.548461914063	705.541259765625	109.4342422485352	1410.843017578125	726.7578125	115.2481994628906	1322.45751953125	894.3330078125	1011.749572753906	1336.51025390625	804.8737182617188	924.0116577148438	1395.98046875	635.556884765625	43.59308242797852	1366.4189453125	666.7385864257813	63.05691146850586	1411.37890625	644.0081176757813	87.32765197753906	1366.002685546875	775.824951171875	475.5084533691406	1408.73388671875	820.6644287109375	1081.716430664063	1384.625854492188	794.2095336914063	537.1689453125	1400.39990234375	776.598876953125	514.9862670898438	1275.411376953125	852.8095092773438	56.83435440063477	1323.869506835938	860.9461669921875	73.55091857910156	1369.076782226563	827.9459838867188	51.72934722900391	1440.750854492188	720.8713989257813	1051.945678710938	1263.3037109375	705.2521362304688	191.6615447998047	1417.583251953125	667.6416625976563	199.3935089111328	1376.825561523438	707.1060180664063	272.3719787597656	1428.9482421875	671.5833740234375	279.53369140625	1389.142211914063	771.2769775390625	656.1393432617188	1412.853759765625	714.6167602539063	657.1659545898438	1365.88623046875	770.0785522460938	765.9332885742188	1412.01513671875	717.1849365234375	766.6264038085938	1367.270385742188	826.845703125	449.7314147949219	1358.9140625	
133	0.88	718.3777465820313	108.2743301391602	1047.037719726563	736.2988891601563	115.3199920654297	1133.715209960938	905.41845703125	1014.680603027344	1096.9609375	811.9959716796875	922.44091796875	1031.316528320313	645.6668090820313	41.05786895751953	1090.144165039063	667.9595336914063	61.40284729003906	1047.83203125	654.7045288085938	85.29652404785156	1091.575805664063	773.2313842773438	468.3023986816406	1036.3212890625	811.1409912109375	1083.609497070313	1044.230346679688	785.4849853515625	530.0106811523438	1040.786010742188	767.4683227539063	517.9268798828125	1166.290283203125	869.606689453125	54.70969390869141	1128.13818359375	876.0016479492188	66.18761444091797	1089.113037109375	834.592041015625	49.1041374206543	1013.266052246094	720.1807861328125	1055.291015625	1159.939086914063	728.216552734375	183.0033721923828	1039.197509765625	683.2045288085938	187.8905639648438	1063.702026367188	730.7554321289063	261.94970703125	1020.946105957031	685.084716796875	271.1234741210938	1047.345336914063	780.3309936523438	654.3514404296875	1022.477233886719	719.543701171875	656.0523681640625	1060.56591796875	778.0239868164063	764.7977294921875	1020.413818359375	723.4041137695313	766.6295166015625	1061.831665039063	823.2207641601563	450.4801940917969	1090.53759765625	705.5494995117188	109.4349899291992	1410.844116210938	726.7548217773438	115.2511749267578	1322.456665039063	894.3289184570313	1011.750549316406	1336.500610351563	804.8640747070313	924.0155639648438	1395.978637695313	635.5540161132813	43.5914421081543	1366.415771484375	666.728759765625	63.0560417175293	1411.38232421875	644.006591796875	87.32279205322266	1365.999755859375	775.8363647460938	475.5034484863281	1408.734130859375	820.6536254882813	1081.71337890625	1384.63134765625	794.2075805664063	537.1671752929688	1400.397705078125	776.6077880859375	515.0010375976563	1275.39599609375	852.8153076171875	56.83731842041016	1323.873657226563	860.9444580078125	73.54183959960938	1369.0859375	827.9417114257813	51.7281608581543	1440.752197265625	720.86376953125	1051.931518554688	1263.303466796875	705.2550048828125	191.6528778076172	1417.58642578125	667.6430053710938	199.3867797851563	1376.828002929688	707.1053466796875	272.3790588378906	1428.942138671875	671.5820922851563	279.5323181152344	1389.14404296875	771.2710571289063	656.1371459960938	1412.856689453125	714.6216430664063	657.1629028320313	1365.88134765625	770.0785522460938	765.9188232421875	1412.016357421875	717.1821899414063	766.6216430664063	1367.265747070313	826.84912109375	449.7289733886719	1358.911865234375	
134	0.8866666666666667	718.3773193359375	108.2710266113281	1047.036743164063	736.3045654296875	115.3223571777344	1133.717529296875	905.41259765625	1014.681518554688	1096.958129882813	811.9853515625	922.444091796875	1031.314086914063	645.6640625	41.05088424682617	1090.14794921875	667.9603881835938	61.40253067016602	1047.83056640625	654.694091796875	85.29785919189453	1091.580444335938	773.2346801757813	468.3031616210938	1036.310424804688	811.1256103515625	1083.607788085938	1044.229370117188	785.482666015625	530.000244140625	1040.774536132813	767.4500122070313	517.9498291015625	1166.287231445313	869.6079711914063	54.71298217773438	1128.15234375	875.9882202148438	66.19053649902344	1089.114990234375	834.5951538085938	49.100830078125	1013.267333984375	720.1719360351563	1055.285278320313	1159.940551757813	728.2097778320313	183.0123901367188	1039.190063476563	683.2018432617188	187.8951416015625	1063.699829101563	730.7504272460938	261.9493713378906	1020.941223144531	685.0822143554688	271.119873046875	1047.339721679688	780.3441772460938	654.3508911132813	1022.471496582031	719.5429077148438	656.050537109375	1060.562744140625	778.0122680664063	764.7990112304688	1020.4091796875	723.3998413085938	766.6276245117188	1061.822509765625	823.2219848632813	450.4803771972656	1090.538940429688	705.5369873046875	109.4315338134766	1410.85498046875	726.7606201171875	115.2456665039063	1322.465942382813	894.3211669921875	1011.754943847656	1336.492065429688	804.865234375	924.019287109375	1395.980102539063	635.555908203125	43.58586502075195	1366.41650390625	666.7279663085938	63.05533218383789	1411.37841796875	644.004638671875	87.32387542724609	1366.00439453125	775.8388671875	475.5013122558594	1408.736694335938	820.6505126953125	1081.711303710938	1384.618408203125	794.2183227539063	537.1639404296875	1400.396118164063	776.5955810546875	514.9860229492188	1275.385375976563	852.8099975585938	56.82698059082031	1323.872802734375	860.9464111328125	73.55284118652344	1369.086303710938	827.9458618164063	51.72454452514648	1440.747436523438	720.8519897460938	1051.931396484375	1263.303466796875	705.2601318359375	191.6534423828125	1417.589599609375	667.6392211914063	199.3895721435547	1376.821411132813	707.1109619140625	272.3667907714844	1428.940551757813	671.5895385742188	279.5247192382813	1389.136962890625	771.276123046875	656.140380859375	1412.849487304688	714.624267578125	657.1572875976563	1365.876586914063	770.0759887695313	765.9237670898438	1412.01416015625	717.18359375	766.6129150390625	1367.263793945313	826.8517456054688	449.7103881835938	1358.91064453125	
135	0.8933333333333334	718.3744506835938	108.2691040039063	1047.033325195313	736.3103637695313	115.3177032470703	1133.714477539063	905.4038696289063	1014.68212890625	1096.949829101563	811.9954223632813	922.4345703125	1031.318969726563	645.6608276367188	41.05340194702148	1090.144653320313	667.9541015625	61.40711975097656	1047.830444335938	654.693359375	85.30173492431641	1091.576416015625	773.2423095703125	468.3011474609375	1036.302856445313	811.1106567382813	1083.603881835938	1044.236206054688	785.4749145507813	530.008544921875	1040.769897460938	767.45703125	517.9365234375	1166.274780273438	869.60595703125	54.70951843261719	1128.146240234375	875.9939575195313	66.18967437744141	1089.123779296875	834.5969848632813	49.10107040405273	1013.260192871094	720.1633911132813	1055.286743164063	1159.94140625	728.2085571289063	183.0086517333984	1039.192260742188	683.206298828125	187.8907470703125	1063.70263671875	730.7598266601563	261.9518432617188	1020.939636230469	685.0811157226563	271.1174621582031	1047.337280273438	780.3406372070313	654.3486328125	1022.460266113281	719.5430297851563	656.0480346679688	1060.552734375	778.0146484375	764.7958984375	1020.39990234375	723.3903198242188	766.6265258789063	1061.812744140625	823.2227172851563	450.4828491210938	1090.51904296875	705.54833984375	109.4251022338867	1410.8408203125	726.7545776367188	115.2395553588867	1322.460205078125	894.3034057617188	1011.753967285156	1336.4814453125	804.8616333007813	924.0038452148438	1395.976440429688	635.5532836914063	43.58506011962891	1366.417236328125	666.7325439453125	63.05151748657227	1411.382690429688	644.0084838867188	87.31803131103516	1366.010131835938	775.8611450195313	475.49267578125	1408.725708007813	820.6524047851563	1081.707397460938	1384.619140625	794.23828125	537.1483154296875	1400.376586914063	776.6087036132813	514.9954833984375	1275.369262695313	852.8135986328125	56.82884979248047	1323.871215820313	860.941650390625	73.55474853515625	1369.08251953125	827.946533203125	51.73015213012695	1440.749389648438	720.8407592773438	1051.923950195313	1263.292724609375	705.2708740234375	191.6551666259766	1417.588745117188	667.6538696289063	199.3865051269531	1376.825927734375	707.1203002929688	272.3671569824219	1428.94775390625	671.5927124023438	279.5284118652344	1389.1416015625	771.283203125	656.1298217773438	1412.841552734375	714.6268920898438	657.1504516601563	1365.87353515625	770.072509765625	765.9171142578125	1412.0068359375	717.1814575195313	766.6142578125	1367.260009765625	826.8609008789063	449.7081909179688	1358.899047851563	
